<svg id="Laag_1" data-name="Laag 1" xmlns="http://www.w3.org/2000/svg" viewBox="0 0 761.99 906.02"><defs><style>.cls-1{fill:#9d6050;}.cls-2{fill:#f3aeb3;}.cls-3{fill:#eaa18e;}.cls-4{fill:#b0796b;}.cls-5{fill:#e58a72;}.cls-6{fill:#e55672;}.cls-7{fill:#76483c;}.cls-8{fill:#9e4a54;}.cls-9{fill:#e57772;}</style></defs><path class="cls-1" d="M605.36,454.2s17.53,8.14.51,1.35c-17.26-6.9-46.13-7.09-92.4,20.11-91.9,54-72.21,270.64-72.21,270.64s-16.41,108.31-19.69,114.87,44.28-19.46,46.75-9.73,9.24,20.53,14.06,20,24.52-6.8,31.09-5.28,23,17.93,45.94,17.93S602.08,871,602.08,871l25.73-4.34L748,851.44s59.7-4.07,70.1-10.3,46.54-19.77,51.29-16.07c5.69,4.43-19.47-23.14-21.2-39.38-1.39-13.06.83-111.8-1.23-129.75S829.45,518.3,797.82,492.81s-71-64.86-117-61.58-65.64,20.68-65.64,20.68" transform="translate(-159.01 -431.04)"/><path class="cls-2" d="M867.92,953.07s-61.73-17.38-102.36-38.79c-61.19,55.62-129.43,25.3-155.67,9.9-24.34,14.08-70.61,36.69-108,54.51a112.45,112.45,0,0,0-63.56,90.59l-16.74,254.65,498.86-16.41S930.28,1028.55,867.92,953.07Z" transform="translate(-159.01 -431.04)"/><path class="cls-3" d="M614.55,831.63s36.1,72.21,3.28,91.9c0,0,2.41,53.7,73.41,49.82S768.8,917,768.8,917,736,894,732.7,887.43s-9.85-62.36-9.85-62.36S657.21,848,614.55,831.63Z" transform="translate(-159.01 -431.04)"/><path class="cls-4" d="M730.62,878.64c-3.39-17.24-7.77-54.39-7.77-54.39s-65.64,23-108.3,6.56a206.31,206.31,0,0,1,13.26,35.87Z" transform="translate(-159.01 -431.04)"/><path class="cls-3" d="M513.47,618.06l32.82,157.78s26.25,49.23,114.87,72.2c0,0,107.7-36.8,123.07-64.26,24.62-44,24.62-159,24.62-159s-14.07-87.93-59.78-111.61-90.82-31.58-108.71-22.55S541.6,520,527.53,547,513.47,618.06,513.47,618.06Z" transform="translate(-159.01 -431.04)"/><path class="cls-3" d="M520,650.07s-19.69-20.41-32.82-8.16,3.28,61.9,16.41,63.61,24.65-14.62,24.65-14.62Z" transform="translate(-159.01 -431.04)"/><path class="cls-3" d="M799.2,634.47s16.09-25.64,31.11-13.93,7,69.45-5.69,73.29-26.8-12.67-26.8-12.67Z" transform="translate(-159.01 -431.04)"/><ellipse class="cls-5" cx="413.53" cy="279.16" rx="32.82" ry="16.41"/><path class="cls-6" d="M723.51,749.58c-17.79,4.95-38.3,25.91-55.79,26.26-33.44.67-49.23-26.26-49.23-26.26l46,9.85Z" transform="translate(-159.01 -431.04)"/><path d="M700.54,661s13.13-19.69,23-23,41,0,41,0,13.94.36,14.35-1.46-9.43,9.84-14.35,12.21S720.23,644.56,700.54,661Z" transform="translate(-159.01 -431.04)"/><path d="M621.86,663.28s-15.48-18.34-25.52-20.4-40,5.33-40,5.33-13.55,2.18-14.2.38,10.54,8.8,15.66,10.57S600.43,649.14,621.86,663.28Z" transform="translate(-159.01 -431.04)"/><path class="cls-7" d="M770.64,583.53c-36.43-11.72-74.77,2.6-74.77,2.6s-6.76,5.63,5.25,5.17c0,0,75.81.34,72.66-3.61l-3.14-3.94" transform="translate(-159.01 -431.04)"/><path class="cls-7" d="M616.38,593.38C580,581.66,541.62,596,541.62,596s-6.76,5.63,5.25,5.16c0,0,75.8.34,72.66-3.6l-3.15-3.95" transform="translate(-159.01 -431.04)"/><ellipse class="cls-4" cx="505.43" cy="282.44" rx="16.41" ry="6.56"/><ellipse class="cls-5" cx="597.32" cy="275.88" rx="32.82" ry="16.41"/><path class="cls-8" d="M355.93,789c-9.84-75.49-23-114.87-32.82-111.59s3.28,59.08,3.28,59.08-6.56-26.26-29.53-32.82S355.93,789,355.93,789Z" transform="translate(-159.01 -431.04)"/><path class="cls-3" d="M345.51,1130.29s-61.78-45.94-67.95-95.17c-4.15-33.2,51.77-125.43,55-128.36s93.83-25.9,113.24-16,87.36,88.61,87.36,88.61L501,1071.58s-74.56,75.12-119.85,75.12S345.51,1130.29,345.51,1130.29Z" transform="translate(-159.01 -431.04)"/><path class="cls-7" d="M375.62,854.61s-9.84-42.67-68.92-6.57-65.64,75.49-68.92,95.18S205,1012.14,182,1012.14l-23,13.13s75.49,14.59,103.39-5.83S352.65,854.61,375.62,854.61Z" transform="translate(-159.01 -431.04)"/><path class="cls-1" d="M445.51,907.12s-47.07-3.28-47.07,36.1c0,0,43.71-23,67.24-19.69s-16.81,62.36-16.81,62.36,37-3.29,50.43-29.54v57.59c0,1.48,26.9-11.64,26.9-31.34,0,0-38.75,118.16-48.83,128S580,1041.68,549.73,926.81c-19.67-74.67-100.44-84.16-154.55-81.66-30.46,1.41-50.72,23.63-71.82,45.12-35.87,36.54-56,59.51-56,138.28,0,25,13.13,49.23,13.13,49.23s-4.73-131.9,87.73-165.23C368.18,912.55,416.93,892.35,445.51,907.12Z" transform="translate(-159.01 -431.04)"/><path class="cls-3" d="M330.72,938s-2.8-21.23-16.28-19.72-25.8,39-18.59,45.94,21.55,2.24,21.55,2.24Z" transform="translate(-159.01 -431.04)"/><path class="cls-3" d="M315.23,1088.53s4.41,70.25-26.67,95.71,132,18.29,133,18.26c0,0-13.13-3.28-23-13.13-9.3-9.3-5.36-47-5.36-47Z" transform="translate(-159.01 -431.04)"/><path class="cls-8" d="M287,1176.24s42.67,42.67,108.31,9.85c0,0,55.79,16.41,59.07,23s29.54,114.87,29.54,114.87l-308.51,13.13s26.26-124.72,32.82-124.72S287,1176.24,287,1176.24Z" transform="translate(-159.01 -431.04)"/><path class="cls-4" d="M313.29,1101.82s20.09,16.2,41.61,28.47c15.59,8.9,33.19,14.84,38.34,15.31l-.84,18.82L310,1138.5S315.52,1109.45,313.29,1101.82Z" transform="translate(-159.01 -431.04)"/><ellipse class="cls-4" cx="394.77" cy="1051.04" rx="7.18" ry="13.89" transform="translate(-860.41 377.24) rotate(-56.93)"/><path d="M401.68,995.35s-6-24.52-51.66-35l-3.93-10.53s41.69,20.72,45.17,24.86c6.95,8.28,14.08,16.57,14,20.71S401.68,995.35,401.68,995.35Z" transform="translate(-159.01 -431.04)"/><path d="M438.4,1023.37s25.17-2,49.5,38l11.22.43s-32.76-33.08-37.79-35.08c-10-4-20.15-8.17-24.05-6.78S438.4,1023.37,438.4,1023.37Z" transform="translate(-159.01 -431.04)"/><ellipse class="cls-9" cx="346.09" cy="995.73" rx="9.85" ry="22.97" transform="translate(-816.89 243.28) rotate(-53.08)"/><ellipse class="cls-9" cx="450.96" cy="1075.17" rx="9.85" ry="22.97" transform="translate(-838.52 358.84) rotate(-53.08)"/><path class="cls-6" d="M352.65,1061.37s0,46,52.6,34.79" transform="translate(-159.01 -431.04)"/></svg>