<svg id="Laag_1" data-name="Laag 1" xmlns="http://www.w3.org/2000/svg" viewBox="0 0 552.86 661.05"><defs><style>.cls-1{fill:#9e4a54;}.cls-2{fill:#77383f;}.cls-3{fill:#e58a72;}.cls-4{fill:#ac6856;}.cls-5{fill:#f9faec;stroke:#bbbbb1;stroke-miterlimit:10;}</style></defs><path class="cls-1" d="M364.88,1066.62S338,1187.39,485,1203s269.89-65.2,269.89-65.2,38.44-26.4,44.42-55.29-11.59-94.37-11.59-94.37l-32.61,16-36.94,19.53s54.13,34.5-66.66,87.21-203.11,2.26-203.11,2.26l-19.29-16s-2.75-13.25,4.9-14.84S364.88,1066.62,364.88,1066.62Z" transform="translate(-287.85 -543.95)"/><path class="cls-2" d="M440.48,1106.42,429,1096.91s-2.75-13.26,4.91-14.85-69.11-15.62-69.11-15.62-7.47,33.65,7.08,67.72Z" transform="translate(-287.85 -543.95)"/><path class="cls-2" d="M729.81,1049.07l69.93,4C797,1023,787.64,988,787.64,988l-32.61,16-36.93,19.54S732.66,1032.77,729.81,1049.07Z" transform="translate(-287.85 -543.95)"/><path class="cls-3" d="M542.45,858.14c-152.19,31.57-265.78,104.28-253.73,162.4s145.2,79.66,297.38,48.09,265.78-104.27,253.73-162.4S694.63,826.58,542.45,858.14ZM419.09,1004.42c-12.89,9.29-28,11.3-33.86,4.49s-.09-19.86,12.8-29.15,28.05-11.31,33.87-4.5S432,995.12,419.09,1004.42Zm319.66-51.23c-4.37,8-19.57,9.57-34,3.49s-22.51-17.5-18.14-25.51,19.58-9.57,34-3.49S743.13,945.18,738.75,953.19Z" transform="translate(-287.85 -543.95)"/><path class="cls-4" d="M450.67,891.79s-91.07,37.42-51.79,53.62,66-13.7,66-13.7S443.81,901.84,450.67,891.79Z" transform="translate(-287.85 -543.95)"/><path class="cls-5" d="M612.27,867.61c10.05,16.76-3.54,40.65-12.64,54.52s-56.62,15.73-90.27,26.7-62.31-31-58.37-64.94-19.73-138.4-19.73-138.4-110-102.45,4-192.44c20.58-16.24,53.68-4.5,53.68-4.5,142,30.42,80.2,175,80.2,175S566.5,791.28,612.27,867.61Z" transform="translate(-287.85 -543.95)"/><path d="M567.88,1065.09" transform="translate(-287.85 -543.95)"/><path d="M567.88,1066.59a1.5,1.5,0,0,0,0-3,1.5,1.5,0,0,0,0,3Z" transform="translate(-287.85 -543.95)"/></svg>