<svg id="Laag_1" data-name="Laag 1" xmlns="http://www.w3.org/2000/svg" viewBox="0 0 601.73 556.98"><defs><style>.cls-1{fill:#f3aeb3;}.cls-2{fill:#9f4b56;}.cls-3{fill:#e58a72;}.cls-4{fill:#f9faeb;}</style></defs><path class="cls-1" d="M386.11,819.24c169,190.14-89.52,243.41-9.38,1.93-80.14,241.48-255.56,44.18-6.36-7.15-249.2,51.33-166-199.23,3-9.09-169-190.14,89.52-243.4,9.38-1.93,80.14-241.47,255.55-44.18,6.36,7.16C638.31,758.82,555.16,1009.38,386.11,819.24Z" transform="translate(-213.4 -550.62)"/><path class="cls-2" d="M383.3,814.6c94.57,106.36-50.07,136.16-5.24,1.08-44.83,135.08-143,24.71-3.56-4-139.4,28.71-92.88-111.45,1.69-5.08-94.57-106.37,50.07-136.16,5.24-1.09,44.83-135.07,143-24.71,3.56,4C524.39,780.8,477.87,921,383.3,814.6Z" transform="translate(-213.4 -550.62)"/><path class="cls-3" d="M683.41,973c139.19,156.55-73.7,200.41-7.72,1.59-66,198.82-210.41,36.38-5.24-5.89-205.17,42.27-136.7-164,2.48-7.48-139.18-156.55,73.71-200.41,7.72-1.59,66-198.82,210.41-36.37,5.24,5.89C891.06,923.26,822.6,1129.55,683.41,973Z" transform="translate(-213.4 -550.62)"/><circle class="cls-4" cx="464.77" cy="416.49" r="30.29"/><path class="cls-1" d="M681.1,969.18c77.86,87.57-41.23,112.11-4.32.89-36.91,111.22-117.7,20.35-2.93-3.3-114.77,23.65-76.47-91.75,1.39-4.18-77.86-87.57,41.23-112.11,4.32-.89,36.91-111.22,117.7-20.35,2.93,3.3C797.26,941.35,759,1056.75,681.1,969.18Z" transform="translate(-213.4 -550.62)"/><circle class="cls-2" cx="464.77" cy="415.26" r="16.94"/><path class="cls-2" d="M658.94,673.76c117.08,131.68-62,168.57-6.49,1.33-55.51,167.24-177,30.6-4.41-5-172.58,35.55-115-138,2.09-6.3-117.08-131.68,62-168.57,6.49-1.33,55.51-167.24,177-30.6,4.41,5C833.61,631.91,776,805.44,658.94,673.76Z" transform="translate(-213.4 -550.62)"/><circle class="cls-4" cx="441.14" cy="118.18" r="25.48"/><path class="cls-3" d="M657,670.54c65.5,73.67-34.68,94.3-3.63.75-31,93.55-99,17.11-2.47-2.77-96.54,19.88-64.32-77.19,1.17-3.52-65.49-73.67,34.68-94.3,3.63-.75,31-93.55,99-17.12,2.47,2.77C754.71,647.13,722.5,744.21,657,670.54Z" transform="translate(-213.4 -550.62)"/><circle class="cls-4" cx="166.34" cy="261.46" r="36.79"/><circle class="cls-1" cx="441.14" cy="117.14" r="14.25"/></svg>